<svg width="191" height="197" viewBox="0 0 191 197" fill="none" xmlns="http://www.w3.org/2000/svg">
<path d="M112.516 114C112.516 114 112.828 114.622 113.452 115.865C114.076 117.108 114.511 118.561 114.755 120.222C115 121.884 115.489 123.932 116.222 126.365C116.955 128.798 117.588 130.827 118.12 132.451C118.652 134.074 118.939 135.833 118.983 137.727C119.026 139.62 119.094 141.429 119.187 143.153C119.28 144.876 119.423 146.928 119.617 149.307C119.81 151.686 119.905 152.876 119.902 152.876C119.898 152.876 119.895 152.877 119.891 152.877C119.888 152.877 119.558 152.437 118.902 151.555C118.246 150.674 117.446 149.528 116.502 148.116C115.558 146.704 114.693 145.169 113.908 143.509C113.123 141.85 112.394 140.108 111.721 138.284C111.048 136.46 110.627 134.287 110.459 131.766C110.291 129.245 110.154 127.106 110.048 125.349C109.942 123.593 110.011 121.884 110.256 120.222C110.501 118.561 110.935 117.108 111.559 115.865C112.183 114.622 112.499 114 112.506 114H112.516Z" fill="#4D4D4D"/>
<path d="M86.5541 114C86.5541 114 86.8854 114.497 87.5481 115.492C88.2108 116.487 88.7121 118.159 89.0521 120.508C89.392 122.857 89.6729 124.852 89.8947 126.493C90.1166 128.134 90.5439 129.881 91.1767 131.734C91.8095 133.587 92.1007 135.852 92.0504 138.529C92.0002 141.206 91.9848 143.463 92.0043 145.297C92.0239 147.132 91.7697 148.563 91.2418 149.588C90.7139 150.614 90.4516 151.127 90.4549 151.126C90.4582 151.124 90.4615 151.123 90.4648 151.122C90.4682 151.121 90.2209 151.309 89.7229 151.687C89.225 152.064 88.6645 151.297 88.0416 149.385C87.4186 147.474 86.754 145.661 86.0479 143.945C85.3417 142.23 84.7146 140.171 84.1664 137.768C83.6183 135.365 83.2635 133.31 83.1021 131.602C82.9406 129.894 82.9707 128.205 83.1926 126.536C83.4144 124.866 83.6953 122.857 84.0352 120.508C84.3752 118.159 84.8765 116.487 85.5392 115.492C86.2019 114.497 86.5367 114 86.5436 114H86.5541Z" fill="#4D4D4D"/>
<path d="M84.7124 82.4599C84.7124 82.4599 83.8754 82.0984 82.2014 81.3756C80.5274 80.6527 78.5788 79.6949 76.3556 78.5022C74.1324 77.3095 71.7227 76.0342 69.1264 74.6761C66.5301 73.3181 63.9143 71.9324 61.2792 70.5191C58.6441 69.1057 56.0646 68.0903 53.5409 67.4728C51.0171 66.8553 48.428 66.4182 45.7736 66.1615C43.1192 65.9048 40.9788 65.5765 39.3523 65.1768C37.7258 64.777 35.6866 64.3428 33.235 63.8741C30.7833 63.4055 28.6062 63.0198 26.7035 62.7172C24.8009 62.4146 23.0154 62.1237 21.3469 61.8446C19.6785 61.5656 17.9799 61.5011 16.2511 61.6513C14.5224 61.8014 12.7735 62.2136 11.0046 62.8878C9.23563 63.562 6.96107 64.5629 4.18091 65.8903C1.40076 67.2178 0.00955286 67.8802 0.00717907 67.8775C0.00480528 67.8748 0.00237943 67.8722 5.63788e-06 67.8695C-0.00236815 67.8669 0.744859 66.8775 2.24161 64.9013C3.73836 62.9252 5.24764 61.0845 6.76944 59.3793C8.29124 57.674 10.0703 56.1769 12.1067 54.8878C14.143 53.5987 16.1923 52.6581 18.2546 52.066C20.3168 51.4739 22.2568 51.0545 24.0746 50.8077C25.8924 50.561 28.0812 50.3342 30.6408 50.1275C33.2004 49.9207 35.9828 49.9655 38.9881 50.2618C41.9934 50.5581 44.4638 50.9133 46.3994 51.3274C48.3349 51.7416 50.7755 52.6132 53.7211 53.9422C56.6668 55.2712 59.0067 56.4165 60.7407 57.3781C62.4747 58.3396 64.4766 59.8394 66.7466 61.8775C69.0167 63.9156 71.2517 65.9628 73.4516 68.0191C75.6516 70.0755 77.737 72.1119 79.7076 74.1284C81.6782 76.145 83.0074 78.0351 83.6952 79.7988C84.3831 81.5625 84.7246 82.4469 84.7197 82.4521L84.7124 82.4599Z" fill="#4D4D4D"/>
<path d="M91.0812 78.0171C91.0812 78.0171 90.8095 76.7314 90.2661 74.1601C89.7226 71.5888 89.6147 69.1606 89.9421 66.8755C90.2696 64.5904 90.692 62.4132 91.2093 60.344C91.7267 58.2749 92.2582 56.1732 92.8038 54.039C93.3495 51.9049 94.0966 49.737 95.0454 47.5354C95.9941 45.3338 97.0366 43.2973 98.173 41.4258C99.3094 39.5543 100.455 37.8065 101.611 36.1823C102.766 34.5581 103.919 32.9956 105.07 31.4948C106.22 29.994 107.37 28.5247 108.518 27.0869C109.667 25.649 111.508 23.5199 114.042 20.6994C116.576 17.879 118.489 15.9394 119.78 14.8808C121.072 13.8221 122.548 12.7401 124.208 11.6348C125.869 10.5295 127.706 9.4477 129.721 8.3895C131.736 7.33131 133.897 6.39738 136.206 5.58771C138.514 4.77804 140.75 4.08378 142.915 3.50493C145.079 2.92607 147.214 2.3952 149.32 1.91233C151.425 1.42947 153.679 1.06303 156.08 0.813007C158.481 0.562983 160.659 0.388006 162.613 0.28808C164.567 0.188154 167.019 0.0991981 169.97 0.0212136C172.92 -0.056771 175.217 0.0802568 176.861 0.432306C178.505 0.784356 180.396 1.66784 182.534 3.08276C184.672 4.49767 186.36 5.92567 187.6 7.36675C188.839 8.80783 189.491 9.62178 189.554 9.80863C189.617 9.99548 189.72 10.4653 189.866 11.218C190.011 11.9707 190.068 12.7308 190.038 13.4982C190.007 14.2656 189.89 15.018 189.686 15.7555C189.482 16.4929 189.198 17.194 188.832 17.8587C188.467 18.5233 188.031 19.1323 187.525 19.6855C187.019 20.2387 186.457 20.7202 185.84 21.1298C185.223 21.5395 184.568 21.8654 183.876 22.1077C183.184 22.35 182.474 22.5015 181.747 22.5623C181.019 22.6231 180.296 22.5914 179.576 22.4671C178.856 22.3429 178.16 22.1298 177.49 21.8278C176.819 21.5258 176.192 21.1437 175.61 20.6815C175.027 20.2193 174.505 19.6903 174.045 19.0947C173.584 18.4991 173.198 17.8542 172.886 17.1598C172.574 16.4655 173.793 17.2142 176.542 19.406C179.291 21.5978 179.583 22.7066 177.418 22.7325C175.252 22.7583 173.139 23.1621 171.077 23.9439C169.015 24.7257 167.09 25.3883 165.302 25.9318C163.513 26.4753 161.701 27.1133 159.865 27.8459C158.028 28.5785 156.046 29.6438 153.917 31.0418C151.788 32.4399 149.918 33.7511 148.307 34.9754C146.696 36.1998 145.075 37.4242 143.443 38.6485C141.811 39.8729 140.387 41.069 139.17 42.2369C137.953 43.4047 136.623 44.4881 135.18 45.4869C133.738 46.4857 131.891 47.872 129.64 49.6457C127.39 51.4194 125.243 53.0225 123.201 54.4549C121.159 55.8874 119.271 57.2662 117.537 58.5915C115.803 59.9167 113.9 61.3112 111.829 62.7751C109.758 64.2389 107.98 65.4721 106.495 66.4745C105.01 67.4769 103.62 68.8255 102.325 70.5203C101.03 72.2151 99.4123 73.7117 97.4714 75.01C95.5305 76.3084 93.7254 77.3577 92.0562 78.1579C90.387 78.9582 88.7928 79.647 87.2736 80.2244C85.7545 80.8018 84.9966 81.0902 85 81.0896C85.0034 81.089 85.0069 81.0884 85.0103 81.0878C85.0137 81.0872 85.4776 80.4194 86.402 79.0844C87.3264 77.7494 88.3273 76.4107 89.4048 75.0682C90.4822 73.7258 91.6945 72.0547 93.0417 70.055C94.389 68.0552 95.292 66.0747 95.7508 64.1136C96.2096 62.1525 97.0088 60.4221 98.1483 58.9225C99.2879 57.4229 100.43 56.0778 101.573 54.8873C102.717 53.6967 104.104 52.0943 105.734 50.0799C107.364 48.0655 109.127 46.1127 111.024 44.2214C112.921 42.3302 114.934 40.4483 117.063 38.5757C119.192 36.7031 120.839 35.103 122.006 33.7755C123.173 32.448 124.386 31.2926 125.645 30.3091C126.903 29.3256 128.392 27.9851 130.11 26.2877C131.829 24.5902 133.507 23.0742 135.147 21.7396C136.786 20.4051 138.476 19.0567 140.216 17.6946C141.957 16.3326 144.01 14.893 146.376 13.3761C148.741 11.8592 150.986 10.6725 153.108 9.81623C155.23 8.95992 157.553 8.10016 160.075 7.23693C162.598 6.37369 164.729 5.72658 166.47 5.29561C168.211 4.86465 169.892 4.46267 171.512 4.08967C173.133 3.71667 174.953 3.53653 176.972 3.54927C178.991 3.56201 181.609 4.65498 184.824 6.82819C188.04 9.00139 189.72 10.4653 189.866 11.218C190.011 11.9707 190.068 12.7308 190.038 13.4982C190.007 14.2656 189.89 15.018 189.686 15.7555C189.482 16.4929 189.198 17.194 188.832 17.8587C188.467 18.5233 188.031 19.1323 187.525 19.6855C187.019 20.2387 186.457 20.7202 185.84 21.1298C185.223 21.5395 184.568 21.8654 183.876 22.1077C183.184 22.35 182.474 22.5015 181.747 22.5623C181.019 22.6231 180.296 22.5914 179.576 22.4671C178.856 22.3429 178.16 22.1298 177.49 21.8278C176.819 21.5258 176.192 21.1437 175.61 20.6815C175.027 20.2193 174.505 19.6903 174.045 19.0947C173.584 18.4991 173.198 17.8542 172.886 17.1598C172.574 16.4655 172.745 16.5462 173.397 17.4002C174.05 18.2542 173.034 18.6932 170.35 18.7174C167.667 18.7415 165.487 18.7879 163.813 18.8566C162.138 18.9253 160.456 19.033 158.765 19.1797C157.074 19.3264 155.246 19.6251 153.281 20.0757C151.315 20.5263 149.404 20.9754 147.547 21.4228C145.69 21.8703 143.964 22.3115 142.367 22.7465C140.77 23.1816 138.501 24.0952 135.56 25.4876C132.619 26.88 130.025 28.2359 127.779 29.5552C125.533 30.8745 123.796 32.2365 122.568 33.6412C121.34 35.0459 120.074 36.3451 118.771 37.5387C117.467 38.7323 116.173 39.9192 114.889 41.0995C113.604 42.2798 112.343 43.4569 111.104 44.6307C109.865 45.8045 108.663 46.9922 107.5 48.1938C106.336 49.3954 105.19 50.7555 104.062 52.2743C102.933 53.793 101.865 55.5218 100.857 57.4608C99.85 59.3997 98.8891 61.201 97.9748 62.8648C97.0606 64.5286 96.1944 66.2694 95.3764 68.0871C94.5583 69.9049 93.6414 72.0147 92.6256 74.4165C91.6098 76.8184 91.0985 78.0189 91.0916 78.0182L91.0812 78.0171Z" fill="#4D4D4D"/>
<path d="M90.3495 77.1521C90.3495 77.1521 91.4123 76.853 93.538 76.2548C95.6636 75.6566 97.6506 75.2128 99.4988 74.9235C101.347 74.6342 103.254 74.346 105.221 74.0591C107.187 73.7722 109.297 73.4804 111.549 73.1838C113.802 72.8871 115.998 72.6092 118.138 72.35C120.278 72.0907 122.498 71.9755 124.8 72.0043C127.102 72.0331 129.457 72.2757 131.866 72.732C134.274 73.1883 136.611 73.7292 138.876 74.3547C141.142 74.9802 143.488 76.0193 145.915 77.4721C148.342 78.9248 150.562 80.457 152.574 82.0687C154.586 83.6803 156.511 85.3137 158.351 86.9688C160.191 88.6239 161.9 90.4608 163.477 92.4796C165.054 94.4984 166.435 96.4616 167.619 98.3691C168.803 100.277 169.846 102.293 170.748 104.419C171.651 106.544 172.414 108.572 173.037 110.501C173.661 112.431 174.233 114.48 174.753 116.648C175.274 118.815 175.752 120.812 176.187 122.637C176.622 124.462 176.966 126.608 177.221 129.074C177.476 131.541 177.647 133.912 177.733 136.188C177.82 138.463 177.879 140.707 177.91 142.918C177.941 145.129 177.836 147.409 177.593 149.758C177.351 152.107 176.862 154.428 176.127 156.72C175.393 159.012 174.385 161.197 173.103 163.275C171.821 165.353 170.602 167.217 169.445 168.868C168.288 170.519 166.63 172.327 164.47 174.292C162.311 176.257 160.265 177.897 158.334 179.213C156.402 180.529 154.472 181.801 152.542 183.03C150.612 184.259 148.53 185.447 146.294 186.593C144.058 187.74 141.87 188.8 139.729 189.774C137.587 190.747 135.173 191.621 132.487 192.394C129.8 193.168 127.181 193.825 124.629 194.366C122.078 194.906 119.55 195.312 117.046 195.581C114.543 195.851 112.033 196.033 109.518 196.128C107.003 196.222 104.626 196.291 102.387 196.336C100.149 196.381 97.9618 196.416 95.8265 196.44C93.6913 196.464 91.5791 196.484 89.4901 196.499C87.4011 196.513 85.4392 196.531 83.6045 196.553C81.7697 196.574 79.6992 196.454 77.3928 196.193C75.0865 195.932 72.9442 195.614 70.966 195.241C68.9878 194.867 66.9245 194.298 64.776 193.532C62.6276 192.767 59.8308 191.464 56.3858 189.624C52.9408 187.784 49.8403 185.642 47.0844 183.197C44.3286 180.751 42.3934 178.931 41.2787 177.734C40.164 176.537 39.0349 175.023 37.8916 173.191C36.7483 171.359 35.8195 169.635 35.1054 168.017C34.3913 166.4 33.5863 163.744 32.6903 160.049C31.7943 156.353 31.2854 152.835 31.1636 149.494C31.0417 146.153 30.988 143.625 31.0022 141.91C31.0165 140.195 31.3775 137.397 32.0852 133.516C32.7929 129.636 33.6186 126.424 34.5624 123.88C35.5062 121.336 36.4237 119.224 37.3149 117.543C38.2061 115.863 39.1891 114.079 40.2637 112.191C41.3384 110.303 42.4488 108.475 43.5949 106.705C44.7411 104.935 45.8804 103.46 47.0128 102.28C48.1452 101.1 49.5976 99.7854 51.3702 98.3367C53.1427 96.8881 54.7283 95.7206 56.127 94.8342C57.5258 93.9478 59.0535 93.2246 60.7102 92.6646C62.367 92.1045 64.0103 91.4964 65.6403 90.8402C67.2703 90.1839 68.8535 89.4834 70.39 88.7387C71.9265 87.9939 73.621 87.3164 75.4735 86.7063C77.3261 86.0961 78.9124 85.4452 80.2326 84.7535C81.5528 84.0618 82.2131 83.7142 82.2135 83.7105C82.2138 83.7069 82.2142 83.7033 82.2146 83.6996C82.215 83.696 81.8012 84.4959 80.9732 86.0994C80.1452 87.7028 79.0757 89.3647 77.7648 91.0849C76.4538 92.8051 75.0826 94.398 73.6509 95.8634C72.2193 97.3289 70.5264 98.7677 68.5722 100.18C66.6181 101.592 65.0586 102.938 63.8937 104.218C62.7288 105.498 61.4279 107.052 59.991 108.881C58.5542 110.71 57.4428 112.456 56.6569 114.119C55.8711 115.783 55.0482 117.666 54.1882 119.768C53.3283 121.87 52.5084 124.054 51.7286 126.322C50.9489 128.589 50.2241 130.608 49.5545 132.377C48.8849 134.147 48.5968 136.533 48.69 139.535C48.7833 142.536 48.8891 145.359 49.0075 148.003C49.1259 150.647 49.402 152.957 49.8359 154.933C50.2697 156.909 50.8201 158.725 51.487 160.38C52.1539 162.035 53.3301 163.846 55.0156 165.811C56.7011 167.777 58.4925 169.527 60.3897 171.063C62.2869 172.599 64.5776 173.901 67.2619 174.97C69.9461 176.039 72.0758 176.741 73.651 177.075C75.2262 177.409 76.8181 177.693 78.4268 177.926C80.0355 178.16 81.7498 178.284 83.5696 178.299C85.3894 178.314 87.3313 178.322 89.3953 178.322C91.4593 178.322 93.5309 178.318 95.6102 178.308C97.6894 178.298 99.7894 178.276 101.91 178.241C104.03 178.205 106.183 178.14 108.367 178.046C110.551 177.952 112.586 177.818 114.472 177.644C116.357 177.47 118.408 177.132 120.626 176.628C122.844 176.125 124.886 175.617 126.753 175.105C128.62 174.592 130.505 173.895 132.409 173.012C134.313 172.129 136.128 171.248 137.853 170.368C139.578 169.488 141.357 168.448 143.19 167.248C145.022 166.048 147.194 164.564 149.705 162.795C152.216 161.026 154.314 159.007 155.999 156.738C157.683 154.469 158.826 152.197 159.427 149.923C160.027 147.648 160.31 145.48 160.276 143.416C160.241 141.353 160.135 138.567 159.956 135.056C159.778 131.546 159.477 128.868 159.053 127.023C158.63 125.178 158.224 123.362 157.837 121.575C157.449 119.788 156.854 117.471 156.053 114.623C155.252 111.775 154.072 108.901 152.513 105.999C150.954 103.097 149.42 100.818 147.909 99.1636C146.399 97.509 144.931 95.9341 143.507 94.4388C142.082 92.9435 140.762 91.6073 139.549 90.4302C138.335 89.2532 136.801 88.2238 134.945 87.3421C133.09 86.4605 131.298 85.6448 129.568 84.8951C127.838 84.1454 126.034 83.5363 124.157 83.0678C122.279 82.5993 120.272 82.2355 118.135 81.9762C115.997 81.717 113.802 81.4391 111.549 81.1424C109.297 80.8458 107.187 80.554 105.221 80.2671C103.254 79.9802 101.347 79.692 99.4988 79.4027C97.6506 79.1134 95.6636 78.6696 93.538 78.0714C91.4123 77.4732 90.3495 77.1704 90.3495 77.1631V77.1521Z" fill="#4D4D4D"/>
</svg>
