<svg xmlns="http://www.w3.org/2000/svg" version="1.1" xmlns:xlink="http://www.w3.org/1999/xlink" viewBox="0 0 1422 800" style="overflow: hidden; display: block;" width="1422" height="800"><defs></defs><g id="two-0" transform="matrix(1 0 0 1 0 0)" opacity="1"></g><path d="M 630.6976318359375 396.2484228515625 Q 630.6976318359375 396.2484228515625 638.1910798101387 394.37355506071094 645.68452778434 392.49868726985943 655.1199818671216 390.5561434658383 664.5554359499031 388.6135996618172 676.9585927956987 386.22607183967114 689.3617496414943 383.83854401752507 703.7420140820336 381.4462259404588 718.122278522573 379.0539078633925 731.7972252704386 377.2502711283992 745.4721720183043 375.44663439340593 757.7103780938784 373.7068457099707 769.9485841694525 371.9670570265355 780.7065817789417 370.7784046849672 791.4645793884307 369.58975234339886 799.8944639113522 369.15190397304394 808.3243484342738 368.71405560268903 814.9985046755357 368.6786058462667 821.6726609167976 368.6431560898443 826.7041612676852 368.94223160058425 831.7356616185729 369.24130711132415 835.2435453255814 369.6718376504112 838.7514290325898 370.10236818949824 843.0227088661295 370.9775946016907 847.2939886996693 371.85282101388316 850.2815229822739 372.45824601808044 853.2690572648786 373.0636710222778 853.2738247247662 373.0651781142525 853.2785921846538 373.06668520622725 853.2833596445414 373.068192298202 853.288127104429 373.0696993901767 850.318196617746 374.3918957070257 847.348266131063 375.71409202387474 843.2014549146531 376.75271710050924 839.0546436982434 377.7913421771437 835.7212188102549 378.4916744325436 832.3877939222665 379.19200668794355 827.7339520425087 380.12590976647846 823.0801101627509 381.0598128450134 816.5828836910509 382.51807501281473 810.0856572193511 383.976337180616 801.9506636159565 385.4501208424416 793.815670012562 386.9239045042672 783.2298977717576 388.6302669138545 772.644125530953 390.3366293234418 760.3088667875918 392.2027541112458 747.9736080442306 394.06887889904976 734.2846778973587 395.9408742459704 720.5957477504869 397.81286959289105 705.8553300271678 399.2602686760497 691.1149123038488 400.7076677592084 678.2784836756301 400.9429553743792 665.4420550474115 401.17824298955003 655.5639473473561 400.5982007114078 645.6858396473007 400.01815843326557 638.1917357416191 398.14329064241406 630.6976318359375 396.2684228515625 630.6976318359375 396.2584228515625 Z" fill="hsl(0, 0%, 30%)"></path></svg>